<?xml version="1.0" encoding="UTF-8"?>
<svg width="48" height="48" viewBox="0 0 48 48" fill="none" xmlns="http://www.w3.org/2000/svg">
  <path d="M24 4C12.95 4 4 12.95 4 24s8.95 20 20 20 20-8.95 20-20S35.05 4 24 4zm0 36c-8.84 0-16-7.16-16-16S15.16 8 24 8s16 7.16 16 16-7.16 16-16 16z" fill="currentColor"/>
  <path d="M24 12c-4.42 0-8 3.58-8 8 0 3.54 2.29 6.53 5.47 7.59.4.13.82.2 1.25.26 1.27.18 2.58.18 3.85 0 .43-.06.85-.13 1.25-.26 3.18-1.06 5.47-4.05 5.47-7.59 0-4.42-3.58-8-8-8zm2.47 12.12c-.51.17-1.04.26-1.58.31-.89.13-1.8.13-2.69 0-.54-.05-1.07-.14-1.58-.31-2.23-.74-3.84-2.84-3.84-5.31 0-3.09 2.51-5.6 5.6-5.6s5.6 2.51 5.6 5.6c0 2.47-1.61 4.57-3.84 5.31z" fill="currentColor"/>
</svg>
